HIERARCHY
ROOT Hips
{
	OFFSET 0.00000 0.00000 0.00000
	CHANNELS 6 Xposition Yposition Zposition Yrotation Zrotation Xrotation 
	JOINT Lumbar
	{
		OFFSET 0 0 0
		CHANNELS 3 Zrotation Xrotation Yrotation
		JOINT Neck
		{
			OFFSET 0.00 0.2701 0.00
			CHANNELS 3 Zrotation Xrotation Yrotation
			End Site
			{
				OFFSET 0.00 0.1379 0.00
			}
		}
		JOINT RightShoulder
		{
			OFFSET 0.0119 0.2289 0.1181
			CHANNELS 3 Zrotation Xrotation Yrotation
			JOINT RightElbow
			{
				OFFSET 0.00 -0.1475 0.00
				CHANNELS 2 Zrotation Yrotation
				JOINT RightWrist
				{
					OFFSET 0.00 -0.1605 0.00
					CHANNELS 2 Zrotation Xrotation
					End Site
					{
						OFFSET 0.0040 -0.1068 0.0006
					}
				}
			}
		}
		JOINT LeftShoulder
		{
			OFFSET 0.0119 0.2289 -0.1181
			CHANNELS 3 Zrotation Xrotation Yrotation
			JOINT LeftElbow
			{
				OFFSET 0.00 -0.1475 0.00
				CHANNELS 2 Zrotation Yrotation
				JOINT LeftWrist
				{
					OFFSET 0.00 -0.1605 0.00
					CHANNELS 2 Zrotation Xrotation
					End Site
					{
						OFFSET 0.0040 -0.1068 -0.0006
					}
				}
			}
		}
	}
	JOINT RightHip
	{
		OFFSET 0.0316 -0.0424 0.0458
		CHANNELS 3 Zrotation Xrotation Yrotation
		JOINT RightKnee
		{
			OFFSET 0.00 -0.2438 0.00
			CHANNELS 1 Zrotation
			JOINT RightAnkle
			{
				OFFSET 0.00 -0.2449 0.00
				CHANNELS 3 Zrotation Xrotation Yrotation
				End Site
				{
					OFFSET 0.1237 -0.0542 0.0051
				}
			}
		}
	}
	JOINT LeftHip
	{
		OFFSET 0.0316 -0.0424 -0.0458
		CHANNELS 3 Zrotation Xrotation Yrotation
		JOINT LeftKnee
		{
			OFFSET 0.00 -0.2438 0.00
			CHANNELS 1 Zrotation
			JOINT LeftAnkle
			{
				OFFSET 0.00 -0.2449 0.00
				CHANNELS 3 Zrotation Xrotation Yrotation
				End Site
				{
					OFFSET 0.1237 -0.0542 -0.0051
				}
			}
		}
	}
}
MOTION
Frames: 19
Frame Time: 0.02
0.25174 0.41806 0.08955 892.76068 0 4.60657 -16.97782 -1.8684 -11.16023 -16.64201 12.02718 4.28475 14.16417 -35.44217 33.09123 100.92262 81.87377 -17.52533 -3.18925 50.94583 21.32958 17.78713 79.26457 -30.76462 -47.78129 -4.09082 67.65622 2.82518 -2.79161 -81.03478 3.06228 -2.68158 -3.40356 64.8751 0.31066 10.18666 -77.83623 17.58132 -11.50286 -9.20901
0.25164 0.41816 0.08919 892.73561 0 4.71098 -17.10273 -1.85129 -9.92692 -17.1206 9.28403 2.67087 14.32616 -31.81498 32.57998 99.56066 84.94942 -17.17863 -3.97043 54.76186 23.91933 12.78805 83.84006 -36.55989 -50.21136 -3.04231 67.62815 2.84288 -2.7146 -81.03363 3.13157 -2.69625 -3.43493 64.766 0.35531 10.31833 -77.74844 17.61028 -11.57346 -9.25276
0.25162 0.41823 0.08874 892.7173 0 4.8404 -17.16323 -1.85971 -8.58978 -17.89535 6.16178 0.99079 14.63689 -27.808 31.90861 98.01893 87.98678 -16.67356 -4.72711 59.70468 26.99781 6.67798 88.46391 -44.10701 -52.45983 -1.79095 67.59985 2.87579 -2.60464 -81.02942 3.22771 -2.72871 -3.5016 64.64828 0.39388 10.46715 -77.63893 17.63977 -11.64351 -9.30306
0.25157 0.41831 0.08833 892.69586 0 4.95834 -17.25147 -1.85631 -7.31351 -18.532 3.25056 -0.64333 14.87675 -24.0319 31.32779 96.57205 91.07596 -16.30266 -5.48941 64.12883 29.80246 1.01279 93.00537 -50.8684 -54.75902 -0.64661 67.57144 2.90194 -2.50947 -81.02572 3.31126 -2.75315 -3.55263 64.5354 0.43499 10.60777 -77.53975 17.66806 -11.71146 -9.34984
0.25151 0.41839 0.08791 892.67484 0 5.07767 -17.34532 -1.85379 -5.96811 -19.18073 0.1574 -2.35795 15.12111 -19.98398 30.66249 95.06075 94.0499 -15.67496 -6.28029 68.59837 32.83757 -4.44611 97.88048 -57.63376 -57.22154 0.5683 67.54338 2.92713 -2.41492 -81.02525 3.39813 -2.77754 -3.60259 64.41791 0.477 10.75079 -77.43786 17.70073 -11.79018 -9.39941
0.25148 0.41847 0.08749 892.65456 0 5.19941 -17.41239 -1.85555 -4.74824 -19.87393 -2.63529 -3.91264 15.39451 -16.42725 30.13871 93.64748 97.23216 -15.53655 -7.00261 73.20856 35.49825 -10.55435 102.03769 -64.79173 -59.28436 1.68602 67.51494 2.95799 -2.31163 -81.01769 3.48383 -2.80614 -3.6628 64.30857 0.51567 10.89228 -77.33706 17.72435 -11.84616 -9.4445
0.25153 0.41859 0.08711 892.63368 0 5.32526 -17.4229 -1.8624 -3.87829 -20.63927 -4.56056 -5.044 15.71805 -14.2549 30.04548 92.51039 101.13565 -16.85984 -7.55598 78.25568 37.0793 -18.50655 104.25108 -72.55101 -60.35447 2.42372 67.48308 3.0016 -2.18842 -80.98907 3.55949 -2.84262 -3.74397 64.21974 0.5471 11.02949 -77.24065 17.72212 -11.83764 -9.47614
0.25161 0.41872 0.08674 892.61342 0 5.45192 -17.40854 -1.87279 -3.14387 -21.4357 -6.15813 -6.00423 16.06593 -12.60496 30.10148 91.48615 105.22215 -18.66796 -8.0379 83.35174 38.25371 -27.01132 105.71989 -80.63728 -61.01479 3.06336 67.45131 3.05032 -2.05824 -80.95383 3.63279 -2.88257 -3.83389 64.1402 0.57531 11.16376 -77.14687 17.71084 -11.80643 -9.5029
0.25168 0.41883 0.08637 892.59351 0 5.57581 -17.40462 -1.88181 -2.36304 -22.20437 -7.86789 -7.01876 16.39989 -10.76121 30.09007 90.43616 109.13278 -20.20677 -8.54262 88.20798 39.56301 -35.04881 107.48662 -88.61525 -61.81338 3.79041 67.42118 3.09623 -1.93377 -80.9232 3.70719 -2.92051 -3.91891 64.05918 0.60464 11.29663 -77.05455 17.70415 -11.78669 -9.5315
0.25173 0.41899 0.08597 892.57132 0 5.71077 -17.40201 -1.89057 -1.51366 -23.04109 -9.74656 -8.13491 16.75085 -8.71963 30.07097 89.27176 113.43371 -21.94575 -9.08762 94.00088 41.09353 -44.03739 109.4292 -96.52794 -62.80074 4.35596 67.38407 3.14465 -1.79749 -80.88589 3.78271 -2.96095 -4.0092 63.96638 0.63513 11.44166 -76.95032 17.69556 -11.76217 -9.56192
0.25182 0.41905 0.08563 892.55375 0 5.82251 -17.39172 -1.90056 -0.84149 -23.73932 -11.19018 -8.99782 17.07038 -7.21932 30.10568 88.37511 116.96566 -23.38635 -9.5318 97.86618 42.06869 -51.16243 110.82527 -104.57753 -63.30964 5.21676 67.36138 3.18894 -1.68448 -80.86073 3.85463 -2.99671 -4.08994 63.90033 0.66262 11.56042 -76.87174 17.68869 -11.74208 -9.5873
0.252 0.41886 0.08544 892.55054 0 5.86994 -17.36553 -1.91148 -0.61905 -24.04871 -11.51339 -9.20255 17.29588 -7.0878 30.25154 88.18902 118.32661 -23.87314 -9.71695 96.15902 41.53302 -52.99219 110.9136 -113.38263 -62.51085 7.04846 67.3795 3.21962 -1.63865 -80.87264 3.92013 -3.01916 -4.14354 63.9068 0.68173 11.60718 -76.86399 17.68932 -11.7409 -9.60004
0.25222 0.41857 0.0853 892.55173 0 5.89377 -17.3329 -1.92366 -0.57186 -24.21603 -11.40807 -9.15808 17.48825 -7.48438 30.44714 88.2695 118.90745 -24.0456 -9.80277 92.54535 40.46303 -52.92458 110.47484 -122.22554 -61.2599 9.15722 67.41188 3.246 -1.61649 -80.89668 3.98144 -3.03661 -4.18682 63.93973 0.69805 11.62747 -76.88195 17.69189 -11.74473 -9.60784
0.25242 0.41833 0.08515 892.54958 0 5.92837 -17.30415 -1.93625 -0.44945 -24.44602 -11.49639 -9.22791 17.69617 -7.64011 30.62174 88.22982 119.84814 -24.37038 -9.93306 89.95938 39.68724 -53.72909 110.2627 -130.7348 -60.27605 11.049 67.43712 3.27499 -1.58278 -80.91392 4.04255 -3.05593 -4.2337 63.96 0.71637 11.65999 -76.88784 17.69325 -11.74559 -9.61783
0.25263 0.41806 0.08498 892.55261 0 5.96314 -17.27072 -1.94497 -0.31376 -24.68496 -11.57787 -9.28757 17.90373 -7.81819 30.79578 88.19039 120.77503 -24.67283 -10.06403 86.70994 38.68612 -54.51142 110.07392 -140.56913 -59.0252 13.31301 67.46536 3.30169 -1.55187 -80.9363 4.11234 -3.07701 -4.28535 63.98335 0.73181 11.69188 -76.89549 17.69569 -11.7487 -9.62787
0.25283 0.41783 0.08484 892.54653 0 5.99155 -17.24554 -1.96184 -0.24469 -24.87148 -11.57649 -9.31123 18.10284 -8.06738 30.97947 88.21155 121.54014 -24.93977 -10.17047 84.3701 38.02583 -54.88278 109.72759 -147.67756 -58.21903 14.88001 67.49048 3.33171 -1.5212 -80.951 4.16325 -3.09328 -4.32468 64.00636 0.75222 11.71845 -76.9055 17.69642 -11.74849 -9.63669
0.25301 0.41774 0.08479 892.50857 0 6.01142 -17.24745 -2.00211 -0.32467 -24.94333 -11.44787 -9.29889 18.29526 -8.39103 31.18971 88.34144 122.07258 -25.19254 -10.23763 85.17027 38.49821 -54.57067 109.02101 -146.97961 -58.8359 14.35444 67.50563 3.37495 -1.4823 -80.94108 4.1614 -3.09663 -4.33074 64.0226 0.7905 11.73995 -76.91609 17.69237 -11.73899 -9.64343
0.25318 0.4177 0.08477 892.46225 0 6.02509 -17.25754 -2.05023 -0.46378 -24.96769 -11.2527 -9.2593 18.4788 -8.76425 31.40532 88.52153 122.46379 -25.4167 -10.28309 86.92304 39.32335 -53.90932 108.18729 -143.57881 -59.90317 13.1346 67.51677 3.42109 -1.44343 -80.92314 4.14097 -3.09542 -4.32496 64.03748 0.83328 11.75646 -76.92815 17.68648 -11.72586 -9.64911
0.25334 0.41764 0.08473 892.42356 0 6.03943 -17.26216 -2.09401 -0.56959 -25.01706 -11.092 -9.23145 18.66043 -9.10714 31.60938 88.67347 122.90368 -25.64694 -10.33611 88.13066 39.94824 -53.41414 107.45183 -141.59927 -60.70971 12.30176 67.52827 3.46391 -1.40663 -80.9092 4.13015 -3.09688 -4.32579 64.0524 0.87166 11.77316 -76.9392 17.68121 -11.71381 -9.65527
